<?xml version="1.0" encoding="utf-8"?>
<!-- Generator: Adobe Illustrator 21.0.1, SVG Export Plug-In . SVG Version: 6.00 Build 0)  -->
<svg version="1.1" id="Слой_2" xmlns="http://www.w3.org/2000/svg" xmlns:xlink="http://www.w3.org/1999/xlink" x="0px" y="0px"
	 viewBox="0 0 431.1 431.5" style="enable-background:new 0 0 431.1 431.5;" xml:space="preserve">
<style type="text/css">
	.st0{fill:#FFFFFF;stroke:#010202;stroke-width:0.25;stroke-miterlimit:10;}
	.st1{fill:#016B9A;}
	.st2{fill:#EF7C10;}
	.st3{fill:#13263D;}
	.st4{fill:#0185B3;}
</style>
<g>
	<path class="st0" d="M420.3,243.6l-176,176c-15.4,15.4-40.3,15.4-55.6,0l-176-176c-15.4-15.4-15.4-40.3,0-55.6l176-176
		c15.4-15.4,40.3-15.4,55.6,0l176,176C435.7,203.3,435.7,228.2,420.3,243.6z"/>
	<ellipse transform="matrix(0.588 -0.8089 0.8089 0.588 -123.4461 331.981)" class="st1" cx="264.1" cy="287.2" rx="44" ry="44"/>
	<ellipse transform="matrix(0.588 -0.8089 0.8089 0.588 -37.27 320.1609)" class="st1" cx="295.6" cy="196.7" rx="44" ry="44"/>
	<ellipse transform="matrix(0.588 -0.8089 0.8089 0.588 -21.0044 231.2938)" class="st1" cx="216.5" cy="136.3" rx="44" ry="44"/>
	<ellipse transform="matrix(0.588 -0.8089 0.8089 0.588 -162.836 254.6508)" class="st1" cx="168.5" cy="287.2" rx="44" ry="44"/>
	<ellipse transform="matrix(0.588 -0.8089 0.8089 0.588 -102.8479 191.4185)" class="st1" cx="136.5" cy="196.7" rx="44" ry="44"/>
	<polygon class="st1" points="216.6,311.1 233.6,337.1 216.5,384.7 200.2,337.1 	"/>
	<polygon class="st1" points="127.6,248.7 107.8,272.6 57.3,270.4 97.9,240.7 	"/>
	<polygon class="st2" points="162.9,146.7 134,135.3 120.5,86.6 161.3,116 	"/>
	<polygon class="st1" points="303.9,249.3 323.7,273.2 374.2,271.1 333.6,241.3 	"/>
	<polygon class="st2" points="268.6,147.4 297.5,135.9 311,87.3 270.2,116.7 	"/>
	<polygon class="st2" points="215.8,221 206.6,204.9 195.3,204.9 215.8,240.5 236.4,204.9 225.1,204.9 	"/>
</g>
</svg>
