<?xml version="1.0" encoding="utf-8"?>
<!-- Generator: Adobe Illustrator 21.0.1, SVG Export Plug-In . SVG Version: 6.00 Build 0)  -->
<svg version="1.1" xmlns="http://www.w3.org/2000/svg" xmlns:xlink="http://www.w3.org/1999/xlink" x="0px" y="0px"
	 viewBox="0 0 678 154.7" style="enable-background:new 0 0 678 154.7;" xml:space="preserve">
<style type="text/css">
	.st0{fill:#FFFFFF;stroke:#010202;stroke-width:0.25;stroke-miterlimit:10;}
	.st1{fill:#055683;}
	.st2{fill:#EF7C10;}
	.st3{fill:#FFFFFF;}
	.st4{fill:#13263D;}
	.st5{fill:#428ECC;}
	.st6{fill:#016B9A;}
	.st7{font-family:'Academy-Bold';}
	.st8{font-size:72.7599px;}
	.st9{clip-path:url(#SVGID_2_);fill:#FFFFFF;}
	.st10{clip-path:url(#SVGID_2_);fill:none;stroke:#016B9A;stroke-miterlimit:10;}
	.st11{clip-path:url(#SVGID_2_);fill:none;stroke:#016B9A;stroke-width:2;stroke-miterlimit:10;}
	.st12{clip-path:url(#SVGID_2_);fill:none;stroke:#EF7C10;stroke-width:9;stroke-miterlimit:10;}
	.st13{clip-path:url(#SVGID_2_);fill:none;stroke:#016B9A;stroke-width:80;stroke-miterlimit:10;}
	.st14{clip-path:url(#SVGID_4_);fill:#13263D;}
	.st15{clip-path:url(#SVGID_4_);fill:none;stroke:#428ECC;stroke-width:20;stroke-miterlimit:10;}
	.st16{clip-path:url(#SVGID_6_);fill:#016B9A;}
	.st17{clip-path:url(#SVGID_6_);fill:none;stroke:#016B9A;stroke-width:12;stroke-miterlimit:10;}
	.st18{fill:none;stroke:#FFFFFF;stroke-miterlimit:10;}
	.st19{fill:none;stroke:#016B9A;stroke-miterlimit:10;}
	.st20{clip-path:url(#SVGID_8_);fill:#016B9A;}
	.st21{clip-path:url(#SVGID_8_);fill:none;stroke:#016B9A;stroke-width:12;stroke-miterlimit:10;}
	.st22{clip-path:url(#SVGID_10_);fill:#016B9A;}
	.st23{clip-path:url(#SVGID_10_);fill:none;stroke:#016B9A;stroke-width:12;stroke-miterlimit:10;}
</style>
<g id="Слой_1">
</g>
<g id="Слой_2">
</g>
<g id="Слой_3">
	<g>
		
			<ellipse transform="matrix(0.588 -0.8089 0.8089 0.588 -32.9368 139.4918)" class="st6" cx="120.5" cy="102.1" rx="20.4" ry="20.4"/>
		<ellipse transform="matrix(0.588 -0.8089 0.8089 0.588 6.9253 134.0242)" class="st6" cx="135" cy="60.2" rx="20.4" ry="20.4"/>
		<ellipse transform="matrix(0.588 -0.8089 0.8089 0.588 14.4492 92.9173)" class="st6" cx="98.4" cy="32.3" rx="20.4" ry="20.4"/>
		
			<ellipse transform="matrix(0.588 -0.8089 0.8089 0.588 -51.1572 103.7215)" class="st6" cx="76.2" cy="102.1" rx="20.4" ry="20.4"/>
		<ellipse transform="matrix(0.588 -0.8089 0.8089 0.588 -23.4088 74.4724)" class="st6" cx="61.4" cy="60.2" rx="20.4" ry="20.4"/>
		<polygon class="st6" points="98.5,113.2 106.3,125.2 98.4,147.2 90.9,125.2 		"/>
		<polygon class="st6" points="57.3,84.3 48.1,95.3 24.8,94.3 43.6,80.6 		"/>
		<polygon class="st2" points="73.6,37.1 60.3,31.8 54,9.3 72.9,22.9 		"/>
		<polygon class="st6" points="138.9,84.6 148,95.6 171.4,94.6 152.6,80.9 		"/>
		<polygon class="st2" points="122.5,37.4 135.9,32.1 142.1,9.6 123.3,23.2 		"/>
		<g>
			<text transform="matrix(1 0 0 1 188.5996 102.0771)" class="st6 st7 st8">НЕЗАБУДКА</text>
		</g>
		<polygon class="st2" points="98.2,71.4 93.9,63.9 88.6,63.9 98.2,80.6 107.8,63.9 102.6,63.9 		"/>
	</g>
</g>
<g id="Слой_4">
</g>
<g id="Слой_5">
</g>
<g id="Слой_6">
</g>
<g id="Слой_7">
</g>
<g id="Слой_8">
</g>
<g id="Слой_9">
</g>
<g id="Слой_10">
</g>
</svg>
