<?xml version="1.0" encoding="utf-8"?>
<!-- Generator: Adobe Illustrator 21.0.1, SVG Export Plug-In . SVG Version: 6.00 Build 0)  -->
<svg version="1.1" id="Слой_2" xmlns="http://www.w3.org/2000/svg" xmlns:xlink="http://www.w3.org/1999/xlink" x="0px" y="0px"
	 viewBox="0 0 431.1 431.5" style="enable-background:new 0 0 431.1 431.5;" xml:space="preserve">
<style type="text/css">
	.st0{fill:#FFFFFF;stroke:#010202;stroke-width:0.25;stroke-miterlimit:10;}
	.st1{fill:#016B9A;}
	.st2{fill:#EF7C10;}
	.st3{fill:#13263D;}
	.st4{fill:#0185B3;}
</style>
<g>
	<path class="st3" d="M416.4,251.1L250.6,416.9c-19.5,19.5-51.2,19.5-70.7,0L14.2,251.1c-19.5-19.5-19.5-51.2,0-70.7L180,14.6
		c19.5-19.5,51.2-19.5,70.7,0l165.8,165.8C436,199.9,436,231.6,416.4,251.1z"/>
	
		<ellipse transform="matrix(0.588 -0.8089 0.8089 0.588 -124.7579 332.4082)" class="st4" cx="263.9" cy="288.7" rx="44.9" ry="44.9"/>
	<ellipse transform="matrix(0.588 -0.8089 0.8089 0.588 -36.77 320.3396)" class="st4" cx="296.1" cy="196.3" rx="44.9" ry="44.9"/>
	
		<ellipse transform="matrix(0.588 -0.8089 0.8089 0.588 -20.1623 229.6041)" class="st4" cx="215.3" cy="134.6" rx="44.9" ry="44.9"/>
	
		<ellipse transform="matrix(0.588 -0.8089 0.8089 0.588 -164.9759 253.4522)" class="st4" cx="166.3" cy="288.7" rx="44.9" ry="44.9"/>
	
		<ellipse transform="matrix(0.588 -0.8089 0.8089 0.588 -103.7265 188.8904)" class="st4" cx="133.6" cy="196.3" rx="44.9" ry="44.9"/>
	<polygon class="st4" points="215.4,313.1 232.7,339.7 215.3,388.2 198.6,339.7 	"/>
	<polygon class="st4" points="124.5,249.4 104.3,273.8 52.8,271.5 94.2,241.2 	"/>
	<polygon class="st2" points="160.5,145.3 131.1,133.6 117.3,83.9 158.9,113.9 	"/>
	<polygon class="st4" points="304.5,250 324.7,274.4 376.3,272.2 334.9,241.9 	"/>
	<polygon class="st2" points="268.5,146 298,134.3 311.8,84.6 270.1,114.6 	"/>
	<polygon class="st2" points="214.8,220.8 205.4,204.5 193.9,204.5 214.8,240.8 235.8,204.5 224.2,204.5 	"/>
</g>
</svg>
